<svg xmlns="http://www.w3.org/2000/svg" width="94.979" height="94.985" viewBox="0 0 94.979 94.985">
    <defs>
        <style>
            .cls-1{fill:#f6f6f6}.cls-2{fill:#949597;stroke:rgba(0,0,0,0)}
        </style>
    </defs>
    <g id="Group_22684" data-name="Group 22684" transform="translate(-240 -516)">
        <path id="Path_6774" d="M79.63 3065.952a48.853 48.853 0 0 1 20.265 3.478 48.338 48.338 0 0 1 15.246 10.031 47.511 47.511 0 0 1-12.227 76.585 51.951 51.951 0 0 1-9.2 3.4 48.738 48.738 0 0 1-12.464 1.443 49.71 49.71 0 0 1-11.112-1.453 47.46 47.46 0 0 1-19.29-81.876 48.991 48.991 0 0 1 12.74-7.959 47.3 47.3 0 0 1 12.289-3.261 73.88 73.88 0 0 1 3.751-.389" class="cls-1" data-name="Path 6774" transform="translate(205.549 -2549.908)"/>
        <path id="Union_24" d="M-7572.3 9644.237c-1.084-.085-2.176-.01-3.26-.114-.755-.031-1.513-.023-2.271-.056-1.336-.092-2.679-.046-4.015-.14-1.694-.022-3.384-.121-5.078-.141-1.312-.136-2.638-.01-3.95-.162-.956-.039-1.917.024-2.868-.092-.922-.037-1.847-.027-2.769-.054-.954-.111-1.915-.058-2.868-.1-1.152-.1-2.309-.043-3.458-.133-.823-.031-1.651-.039-2.476-.056a2.738 2.738 0 0 1-2.1-1.094 3.212 3.212 0 0 1-.586-1.8c.257-1.946.487-3.9.77-5.841 1.242-9.534 2.529-19.061 3.771-28.595q18.051-.01 36.107 0a5.229 5.229 0 0 1 2.648.564 2.782 2.782 0 0 1 1.217 1.565 9.685 9.685 0 0 1 .276 1.77c.678 7.344 1.322 14.7 2.007 22.04.172 1.91.317 3.819.518 5.727a11.576 11.576 0 0 1 0 1.784 3.29 3.29 0 0 1-1.869 2.321 14.1 14.1 0 0 1-1.389.46c-2.406.683-4.8 1.421-7.208 2.1a2.549 2.549 0 0 1-.669.089 2.574 2.574 0 0 1-.48-.042zm-29.168-36.209c-.051.609-.155 1.217-.225 1.824-.385 2.668-.689 5.35-1.07 8.017-.428 3.389-.907 6.768-1.329 10.158-.332 2.174-.554 4.362-.874 6.538-.278 1.938-.479 3.892-.78 5.828a.638.638 0 0 0 .579.516c.809.061 1.624.01 2.433.095.92.048 1.847 0 2.764.1.987.046 1.982-.012 2.965.1 1.053.061 2.113-.021 3.161.106.922.044 1.847-.007 2.767.1 1.75.021 3.493.133 5.243.147 1.118.1 2.244.044 3.362.131.956.046 1.915.02 2.868.1 1.036.053 2.077 0 3.11.113.576.021 1.154.015 1.733.029.554 0 1.1.1 1.655.092q.015-17 .007-34-14.185.007-28.367 0zm30.287 0q.015 16.941.007 33.879c2.125-.589 4.236-1.223 6.356-1.828a10.247 10.247 0 0 0 1.28-.395 1.091 1.091 0 0 0 .685-1.055 492.624 492.624 0 0 1-.711-7.77c-.44-4.556-.811-9.118-1.254-13.673-.22-2.508-.426-5.018-.683-7.522a2.151 2.151 0 0 0-.264-1.288 2.195 2.195 0 0 0-1.184-.344c-.755-.007-1.508 0-2.258 0h-1.978zm-16.047 20.5a5.7 5.7 0 0 1-.7-.028c-.24-.02-.47-.051-.709-.09-.16-.02-.31-.051-.472-.08-.01 0-.027-.01-.039-.01a.99.99 0 0 1-.169-.041 6.266 6.266 0 0 1-.568-.15c-.211-.061-.421-.118-.622-.2a3.863 3.863 0 0 1-.55-.232 1.761 1.761 0 0 1-.22-.089c-.121-.049-.239-.119-.358-.18-.061-.031-.121-.07-.182-.1a4.573 4.573 0 0 1-.351-.2 1.643 1.643 0 0 1-.179-.1 1.621 1.621 0 0 0-.169-.111c-.111-.07-.22-.149-.332-.22-.179-.131-.36-.269-.537-.409s-.322-.262-.472-.4c-.2-.191-.39-.38-.581-.581s-.358-.4-.527-.62a4.2 4.2 0 0 1-.4-.549 3.6 3.6 0 0 1-.319-.511 4.1 4.1 0 0 1-.291-.521.286.286 0 0 1-.039-.08 7.44 7.44 0 0 1-.322-.689c-.1-.249-.2-.511-.278-.77a.557.557 0 0 1-.061-.17.749.749 0 0 1-.039-.149 10 10 0 0 1-.373-3 1.235 1.235 0 0 1 1.462-.92 1.168 1.168 0 0 1 .459.211 1.729 1.729 0 0 1 .54 1.38c0 .029.01.07.01.1l.01.141.009.08a.549.549 0 0 0 .022.141.01.01 0 0 0 .01-.01 7.715 7.715 0 0 0 .85 2.711c.119.2.239.409.37.607s.269.38.421.571a6.85 6.85 0 0 0 .898.92.764.764 0 0 0 .1.1 7.32 7.32 0 0 0 5.659 1.721 7.48 7.48 0 0 0 6.579-6.648c.012-.01.012-.031.012-.041l.02-.2v-.029a1.013 1.013 0 0 1 .021-.188 1.552 1.552 0 0 1 .518-1.29 1.3 1.3 0 0 1 .47-.211 1.231 1.231 0 0 1 1.452.92 10.162 10.162 0 0 1-.332 2.909c-.02.051-.029.1-.051.15a9.9 9.9 0 0 1-7.21 6.9 9.78 9.78 0 0 1-2.205.263c-.081-.004-.159-.005-.238-.008zm-4.679-1.239a3.891 3.891 0 0 1-.44-.259 1.643 1.643 0 0 0 .179.1c.111.07.23.141.351.2.061.028.121.067.182.1a1.69 1.69 0 0 1-.275-.141zm16.149-23.993c-.293.031-.45-.254-.6-.455-1.457-2.444-2.841-4.936-4.33-7.362-1.537.845-3.055 1.726-4.577 2.592-2.088 1.154-4.148 2.357-6.23 3.521.344.584.743 1.131 1.116 1.694-.726.015-1.457.021-2.183 0-.182.015-.293-.136-.407-.249a2.058 2.058 0 0 1-.636-1.588 1.912 1.912 0 0 1 .98-1.542l10.657-6.051a2.961 2.961 0 0 1 1.667-.542 1.921 1.921 0 0 1 1.368 1.036q2.3 3.924 4.594 7.854a4.558 4.558 0 0 1 .538 1.072c-.4.015-.8.021-1.2.021q-.379.003-.759.003zm-25.235-.036c-.015-2.682 0-5.363-.01-8.046a1.99 1.99 0 0 1 .625-1.587 2.239 2.239 0 0 1 1.494-.422q4.7.007 9.4 0a1.889 1.889 0 0 1 1.9 1.452c.036.354.147.838-.22 1.056a18.368 18.368 0 0 1-1.891 1.077 22.312 22.312 0 0 1-.01-1.416h-9.222v7.886c-.692 0-1.381-.01-2.073 0zm29.715-2.873a8.371 8.371 0 0 1 3.268-1.825 2.924 2.924 0 0 1-.859 2.357c-1.009.937-2.406 1.319-3.4 2.29a4.035 4.035 0 0 1 .989-2.822zm.208-3.849a4.657 4.657 0 0 1 1.653-1.3c.7-.377 1.387-.784 2.113-1.113a3.286 3.286 0 0 1-.152 1.387 2.953 2.953 0 0 1-1.1 1.172 22.564 22.564 0 0 1-2.89 1.639 4.047 4.047 0 0 1 .374-1.785zm.368-2.616a18.5 18.5 0 0 1 .332-1.886c.23-1.009.409-2.028.641-3.035a5.236 5.236 0 0 1 .925.121 23.349 23.349 0 0 1 2.4.615 2.606 2.606 0 0 1-.3 1.476 7.117 7.117 0 0 1-2.636 2.121 2.8 2.8 0 0 1-1.28.591z" class="cls-2" data-name="Union 24" transform="translate(7870.04 -9053.176)"/>
    </g>
</svg>
