<svg xmlns="http://www.w3.org/2000/svg" width="91.92" height="55.223" viewBox="0 0 91.92 55.223">
  <path id="left-arrow" d="M87.487,5.683a1,1,0,0,1-1.3.56c-.25-.1-25.335-9.829-49.088.469C23.013,12.82,12.187,24.691,4.874,41.988l3.133-2.1a1,1,0,0,1,1.114,1.662L1.994,46.324.027,37.878a1,1,0,0,1,.747-1.2A.985.985,0,0,1,1,36.652a1,1,0,0,1,.973.773l.945,4.058C10.44,23.55,21.655,11.229,36.306,4.877A62.15,62.15,0,0,1,61.088,0,78.124,78.124,0,0,1,86.927,4.385a1,1,0,0,1,.56,1.3Z" transform="translate(91.92 46.07) rotate(174)"/>
</svg>
